<svg xmlns="http://www.w3.org/2000/svg" xmlns:xlink="http://www.w3.org/1999/xlink" width="1600" zoomAndPan="magnify" viewBox="0 0 1200 299.999988" height="400" preserveAspectRatio="xMidYMid meet" version="1.0"><defs><g/><clipPath id="69b2c801b5"><rect x="0" width="460" y="0" height="180"/></clipPath><clipPath id="42161b5185"><path d="M 321 0.359375 L 351 0.359375 L 351 33 L 321 33 Z M 321 0.359375 " clip-rule="nonzero"/></clipPath><clipPath id="a35e19811a"><path d="M 388 0.359375 L 419 0.359375 L 419 32 L 388 32 Z M 388 0.359375 " clip-rule="nonzero"/></clipPath><clipPath id="b77a802c52"><path d="M 425 0.359375 L 455 0.359375 L 455 33 L 425 33 Z M 425 0.359375 " clip-rule="nonzero"/></clipPath><clipPath id="3d897692d3"><rect x="0" width="603" y="0" height="44"/></clipPath><clipPath id="3449d5942b"><path d="M 26 0.28125 L 43 0.28125 L 43 19 L 26 19 Z M 26 0.28125 " clip-rule="nonzero"/></clipPath><clipPath id="b853281da2"><path d="M 47 0.28125 L 67 0.28125 L 67 19 L 47 19 Z M 47 0.28125 " clip-rule="nonzero"/></clipPath><clipPath id="8a85cf45b8"><path d="M 81 0.28125 L 98 0.28125 L 98 19 L 81 19 Z M 81 0.28125 " clip-rule="nonzero"/></clipPath><clipPath id="1312402664"><path d="M 113 0.28125 L 133 0.28125 L 133 19 L 113 19 Z M 113 0.28125 " clip-rule="nonzero"/></clipPath><clipPath id="020e26f86f"><path d="M 278 0.28125 L 295 0.28125 L 295 19 L 278 19 Z M 278 0.28125 " clip-rule="nonzero"/></clipPath><clipPath id="4afb94e845"><path d="M 337 0.28125 L 357 0.28125 L 357 19 L 337 19 Z M 337 0.28125 " clip-rule="nonzero"/></clipPath><clipPath id="ead8093c80"><path d="M 387 0.28125 L 404 0.28125 L 404 19 L 387 19 Z M 387 0.28125 " clip-rule="nonzero"/></clipPath><clipPath id="0f571258dd"><path d="M 432 0.28125 L 450 0.28125 L 450 19 L 432 19 Z M 432 0.28125 " clip-rule="nonzero"/></clipPath><clipPath id="92e369f88b"><rect x="0" width="454" y="0" height="26"/></clipPath><clipPath id="c9e9e41d4f"><rect x="0" width="29" y="0" height="35"/></clipPath></defs><g transform="matrix(1, 0, 0, 1, 27, 69)"><g clip-path="url(#69b2c801b5)"><g fill="#ff922b" fill-opacity="1"><g transform="translate(3.000022, 135.040677)"><g><path d="M 96.5625 -119.75 L 96.5625 -117.453125 C 94.582031 -117.453125 93.289062 -117.09375 92.6875 -116.375 C 92.09375 -115.664062 91.796875 -114.378906 91.796875 -112.515625 L 91.796875 -33.890625 C 91.796875 -22.367188 87.679688 -13.566406 79.453125 -7.484375 C 71.222656 -1.398438 59.050781 1.640625 42.9375 1.640625 C 36.132812 1.640625 30.238281 1.039062 25.25 -0.15625 C 20.257812 -1.363281 15.460938 -2.898438 10.859375 -4.765625 C 8.992188 -5.535156 7.398438 -6.140625 6.078125 -6.578125 C 4.765625 -7.015625 3.835938 -7.234375 3.296875 -7.234375 C 2.742188 -7.234375 2.191406 -7.066406 1.640625 -6.734375 C 1.097656 -6.410156 0.660156 -6.082031 0.328125 -5.75 L -1.8125 -6.75 L 10.203125 -35.203125 L 12.671875 -34.046875 C 12.554688 -33.285156 12.5 -32.738281 12.5 -32.40625 C 12.5 -32.070312 12.5 -31.796875 12.5 -31.578125 C 12.5 -30.265625 13.375 -28.8125 15.125 -27.21875 C 16.882812 -25.632812 19.21875 -24.128906 22.125 -22.703125 C 25.03125 -21.273438 28.375 -20.09375 32.15625 -19.15625 C 35.9375 -18.226562 39.859375 -17.765625 43.921875 -17.765625 C 60.265625 -17.765625 68.4375 -24.289062 68.4375 -37.34375 L 68.4375 -112.515625 C 68.4375 -114.378906 68.160156 -115.664062 67.609375 -116.375 C 67.054688 -117.09375 65.796875 -117.453125 63.828125 -117.453125 L 63.828125 -119.75 Z M 96.5625 -119.75 "/></g></g></g><g fill="#ff922b" fill-opacity="1"><g transform="translate(112.712104, 135.040677)"><g><path d="M 45.5625 -119.75 L 45.5625 -117.453125 C 43.59375 -117.453125 42.304688 -117.09375 41.703125 -116.375 C 41.097656 -115.664062 40.796875 -114.378906 40.796875 -112.515625 L 40.796875 -73.03125 L 114.828125 -73.03125 L 114.828125 -112.515625 C 114.828125 -114.378906 114.550781 -115.664062 114 -116.375 C 113.445312 -117.09375 112.078125 -117.453125 109.890625 -117.453125 L 109.890625 -119.75 L 142.78125 -119.75 L 142.78125 -117.453125 C 140.914062 -117.453125 139.679688 -117.09375 139.078125 -116.375 C 138.484375 -115.664062 138.1875 -114.378906 138.1875 -112.515625 L 138.1875 -7.234375 C 138.1875 -5.367188 138.484375 -4.078125 139.078125 -3.359375 C 139.679688 -2.648438 140.914062 -2.296875 142.78125 -2.296875 L 142.78125 0 L 109.890625 0 L 109.890625 -2.296875 C 111.972656 -2.296875 113.316406 -2.625 113.921875 -3.28125 C 114.523438 -3.945312 114.828125 -5.210938 114.828125 -7.078125 L 114.828125 -52.3125 L 40.796875 -52.3125 L 40.796875 -7.234375 C 40.796875 -5.484375 41.066406 -4.222656 41.609375 -3.453125 C 42.160156 -2.679688 43.476562 -2.296875 45.5625 -2.296875 L 45.5625 0 L 12.5 0 L 12.5 -2.296875 C 14.582031 -2.296875 15.925781 -2.648438 16.53125 -3.359375 C 17.132812 -4.078125 17.4375 -5.367188 17.4375 -7.234375 L 17.4375 -112.515625 C 17.4375 -114.378906 17.160156 -115.664062 16.609375 -116.375 C 16.066406 -117.09375 14.695312 -117.453125 12.5 -117.453125 L 12.5 -119.75 Z M 45.5625 -119.75 "/></g></g></g><g fill="#ff922b" fill-opacity="1"><g transform="translate(267.986785, 135.040677)"><g><path d="M 54.453125 -133.90625 L 30.4375 -109.890625 L 13.65625 -109.890625 L 29.109375 -133.90625 Z M 54.453125 -133.90625 "/></g></g></g><g fill="#ff922b" fill-opacity="1"><g transform="translate(322.760588, 135.040677)"><g><path d="M 70.90625 -121.40625 C 78.25 -121.40625 85.375 -120.632812 92.28125 -119.09375 C 99.1875 -117.5625 105.660156 -115.535156 111.703125 -113.015625 C 113.554688 -112.242188 115.5 -111.363281 117.53125 -110.375 C 119.5625 -109.394531 121.015625 -108.90625 121.890625 -108.90625 C 122.992188 -108.90625 123.816406 -109.285156 124.359375 -110.046875 L 127 -109.234375 L 114.328125 -84.546875 L 111.703125 -86.03125 C 111.921875 -86.90625 112.03125 -87.675781 112.03125 -88.34375 C 112.03125 -88.78125 111.097656 -89.765625 109.234375 -91.296875 C 107.367188 -92.828125 104.648438 -94.359375 101.078125 -95.890625 C 97.515625 -97.429688 93.101562 -98.832031 87.84375 -100.09375 C 82.582031 -101.351562 76.492188 -101.984375 69.578125 -101.984375 C 57.734375 -101.984375 48.6875 -100.363281 42.4375 -97.125 C 36.1875 -93.894531 33.0625 -89.484375 33.0625 -83.890625 C 33.0625 -81.148438 33.96875 -79.039062 35.78125 -77.5625 C 37.59375 -76.082031 40.25 -74.984375 43.75 -74.265625 C 47.257812 -73.554688 51.507812 -73.117188 56.5 -72.953125 C 61.488281 -72.785156 67.222656 -72.703125 73.703125 -72.703125 C 81.921875 -72.703125 89.484375 -72.207031 96.390625 -71.21875 C 103.304688 -70.238281 109.226562 -68.429688 114.15625 -65.796875 C 119.09375 -63.171875 122.957031 -59.550781 125.75 -54.9375 C 128.550781 -50.332031 129.953125 -44.359375 129.953125 -37.015625 C 129.953125 -31.203125 128.523438 -25.910156 125.671875 -21.140625 C 122.828125 -16.367188 118.6875 -12.28125 113.25 -8.875 C 107.820312 -5.476562 101.1875 -2.875 93.34375 -1.0625 C 85.507812 0.738281 76.601562 1.640625 66.625 1.640625 C 45.457031 1.640625 28.566406 -1.976562 15.953125 -9.21875 C 13.429688 -10.53125 11.953125 -11.1875 11.515625 -11.1875 C 10.859375 -11.1875 10.363281 -11.019531 10.03125 -10.6875 C 9.707031 -10.363281 9.378906 -10.09375 9.046875 -9.875 L 6.90625 -10.359375 L 20.5625 -38.328125 L 23.1875 -37.015625 C 23.1875 -36.679688 23.128906 -36.320312 23.015625 -35.9375 C 22.910156 -35.5625 22.859375 -34.988281 22.859375 -34.21875 C 22.972656 -31.800781 24.265625 -29.578125 26.734375 -27.546875 C 29.203125 -25.523438 32.410156 -23.800781 36.359375 -22.375 C 40.304688 -20.945312 44.800781 -19.820312 49.84375 -19 C 54.882812 -18.175781 60.039062 -17.765625 65.3125 -17.765625 C 78.25 -17.765625 88.144531 -19.328125 95 -22.453125 C 101.851562 -25.578125 105.28125 -29.882812 105.28125 -35.375 C 105.28125 -38.988281 104.15625 -41.78125 101.90625 -43.75 C 99.65625 -45.726562 96.554688 -47.179688 92.609375 -48.109375 C 88.660156 -49.046875 83.914062 -49.625 78.375 -49.84375 C 72.84375 -50.0625 66.785156 -50.226562 60.203125 -50.34375 C 52.304688 -50.445312 45.234375 -51.019531 38.984375 -52.0625 C 32.734375 -53.101562 27.441406 -54.828125 23.109375 -57.234375 C 18.773438 -59.648438 15.457031 -62.882812 13.15625 -66.9375 C 10.851562 -71 9.703125 -76.101562 9.703125 -82.25 C 9.703125 -88.71875 11.238281 -94.390625 14.3125 -99.265625 C 17.382812 -104.148438 21.632812 -108.238281 27.0625 -111.53125 C 32.488281 -114.820312 38.957031 -117.289062 46.46875 -118.9375 C 53.976562 -120.582031 62.125 -121.40625 70.90625 -121.40625 Z M 70.90625 -121.40625 "/></g></g></g></g></g><g transform="matrix(1, 0, 0, 1, 517, 105)"><g clip-path="url(#3d897692d3)"><g fill="#ff922b" fill-opacity="1"><g transform="translate(1.048624, 31.483457)"><g><path d="M 12.203125 -29.828125 L 12.203125 -29.25 C 11.929688 -29.25 11.6875 -29.179688 11.46875 -29.046875 C 11.25 -28.910156 11.140625 -28.71875 11.140625 -28.46875 C 11.140625 -28.28125 11.222656 -28.035156 11.390625 -27.734375 C 11.554688 -27.429688 11.785156 -27.007812 12.078125 -26.46875 L 20.328125 -10.734375 L 28.84375 -26.546875 C 29.226562 -27.253906 29.492188 -27.742188 29.640625 -28.015625 C 29.785156 -28.296875 29.859375 -28.515625 29.859375 -28.671875 C 29.859375 -29.003906 29.503906 -29.195312 28.796875 -29.25 L 28.796875 -29.828125 L 37.859375 -29.828125 L 37.859375 -29.25 C 37.390625 -29.25 37.085938 -29.160156 36.953125 -28.984375 C 36.816406 -28.804688 36.75 -28.484375 36.75 -28.015625 L 36.75 -1.796875 C 36.75 -1.359375 36.8125 -1.046875 36.9375 -0.859375 C 37.0625 -0.671875 37.367188 -0.578125 37.859375 -0.578125 L 37.859375 0 L 29.953125 0 L 29.953125 -0.578125 C 30.359375 -0.578125 30.625 -0.664062 30.75 -0.84375 C 30.875 -1.019531 30.9375 -1.335938 30.9375 -1.796875 L 30.9375 -20.203125 L 30.84375 -20.203125 L 20.28125 0 L 19.703125 0 L 9.265625 -20.40625 L 9.171875 -20.40625 L 9.171875 -1.765625 C 9.171875 -1.296875 9.253906 -0.976562 9.421875 -0.8125 C 9.585938 -0.65625 9.914062 -0.578125 10.40625 -0.578125 L 10.40625 0 L 3.109375 0 L 3.109375 -0.578125 C 3.546875 -0.578125 3.832031 -0.65625 3.96875 -0.8125 C 4.101562 -0.976562 4.171875 -1.296875 4.171875 -1.765625 L 4.171875 -27.984375 C 4.171875 -28.441406 4.109375 -28.765625 3.984375 -28.953125 C 3.867188 -29.148438 3.578125 -29.25 3.109375 -29.25 L 3.109375 -29.828125 Z M 12.203125 -29.828125 "/></g></g></g><g fill="#ff922b" fill-opacity="1"><g transform="translate(45.407046, 31.483457)"><g><path d="M 8.078125 -14.90625 C 8.078125 -13.21875 8.363281 -11.722656 8.9375 -10.421875 C 9.507812 -9.128906 10.300781 -8.035156 11.3125 -7.140625 C 12.320312 -6.253906 13.515625 -5.578125 14.890625 -5.109375 C 16.273438 -4.648438 17.757812 -4.421875 19.34375 -4.421875 C 21.007812 -4.421875 22.535156 -4.664062 23.921875 -5.15625 C 25.316406 -5.65625 26.503906 -6.351562 27.484375 -7.25 C 28.472656 -8.15625 29.238281 -9.253906 29.78125 -10.546875 C 30.332031 -11.847656 30.609375 -13.300781 30.609375 -14.90625 C 30.609375 -16.550781 30.328125 -18.019531 29.765625 -19.3125 C 29.203125 -20.613281 28.421875 -21.710938 27.421875 -22.609375 C 26.429688 -23.515625 25.238281 -24.207031 23.84375 -24.6875 C 22.445312 -25.164062 20.929688 -25.40625 19.296875 -25.40625 C 17.742188 -25.40625 16.28125 -25.171875 14.90625 -24.703125 C 13.539062 -24.234375 12.351562 -23.554688 11.34375 -22.671875 C 10.332031 -21.785156 9.535156 -20.6875 8.953125 -19.375 C 8.367188 -18.0625 8.078125 -16.570312 8.078125 -14.90625 Z M 19.34375 -30.234375 C 21.71875 -30.234375 23.941406 -29.898438 26.015625 -29.234375 C 28.085938 -28.566406 29.894531 -27.582031 31.4375 -26.28125 C 32.988281 -24.976562 34.207031 -23.382812 35.09375 -21.5 C 35.976562 -19.625 36.421875 -17.46875 36.421875 -15.03125 C 36.421875 -12.414062 35.945312 -10.132812 35 -8.1875 C 34.0625 -6.25 32.8125 -4.644531 31.25 -3.375 C 29.695312 -2.101562 27.894531 -1.15625 25.84375 -0.53125 C 23.800781 0.09375 21.671875 0.40625 19.453125 0.40625 C 16.941406 0.40625 14.632812 0.0546875 12.53125 -0.640625 C 10.425781 -1.335938 8.609375 -2.335938 7.078125 -3.640625 C 5.554688 -4.953125 4.367188 -6.550781 3.515625 -8.4375 C 2.671875 -10.320312 2.25 -12.441406 2.25 -14.796875 C 2.25 -17.359375 2.707031 -19.601562 3.625 -21.53125 C 4.539062 -23.457031 5.773438 -25.066406 7.328125 -26.359375 C 8.890625 -27.660156 10.703125 -28.628906 12.765625 -29.265625 C 14.828125 -29.910156 17.019531 -30.234375 19.34375 -30.234375 Z M 19.34375 -30.234375 "/></g></g></g><g fill="#ff922b" fill-opacity="1"><g transform="translate(87.471789, 31.483457)"><g><path d="M 22.578125 -4.828125 C 24.515625 -4.828125 25.925781 -5.160156 26.8125 -5.828125 C 27.695312 -6.503906 28.140625 -7.617188 28.140625 -9.171875 C 28.140625 -10.648438 27.632812 -11.6875 26.625 -12.28125 C 25.613281 -12.882812 24.207031 -13.1875 22.40625 -13.1875 L 10.078125 -13.1875 L 10.078125 -4.828125 Z M 23.59375 -18.03125 C 24.664062 -18.03125 25.535156 -18.34375 26.203125 -18.96875 C 26.867188 -19.59375 27.203125 -20.441406 27.203125 -21.515625 C 27.203125 -22.816406 26.898438 -23.71875 26.296875 -24.21875 C 25.703125 -24.726562 24.648438 -24.984375 23.140625 -24.984375 L 10.078125 -24.984375 L 10.078125 -18.03125 Z M 23.03125 -29.828125 C 24.332031 -29.828125 25.578125 -29.703125 26.765625 -29.453125 C 27.960938 -29.210938 29.007812 -28.789062 29.90625 -28.1875 C 30.8125 -27.582031 31.53125 -26.769531 32.0625 -25.75 C 32.59375 -24.726562 32.859375 -23.425781 32.859375 -21.84375 C 32.859375 -20.46875 32.519531 -19.253906 31.84375 -18.203125 C 31.175781 -17.160156 30.148438 -16.296875 28.765625 -15.609375 C 30.566406 -14.785156 31.882812 -13.773438 32.71875 -12.578125 C 33.550781 -11.378906 33.96875 -9.957031 33.96875 -8.3125 C 33.96875 -6.863281 33.695312 -5.617188 33.15625 -4.578125 C 32.625 -3.546875 31.90625 -2.6875 31 -2 C 30.101562 -1.320312 29.054688 -0.816406 27.859375 -0.484375 C 26.660156 -0.160156 25.390625 0 24.046875 0 L 3.109375 0 L 3.109375 -0.578125 C 3.578125 -0.578125 3.882812 -0.664062 4.03125 -0.84375 C 4.1875 -1.019531 4.265625 -1.3125 4.265625 -1.71875 L 4.265625 -28.0625 C 4.265625 -28.5 4.191406 -28.804688 4.046875 -28.984375 C 3.910156 -29.160156 3.597656 -29.25 3.109375 -29.25 L 3.109375 -29.828125 Z M 23.03125 -29.828125 "/></g></g></g><g fill="#ff922b" fill-opacity="1"><g transform="translate(127.283809, 31.483457)"><g><path d="M 12.375 -29.828125 L 12.375 -29.25 C 11.75 -29.25 11.335938 -29.164062 11.140625 -29 C 10.953125 -28.84375 10.859375 -28.515625 10.859375 -28.015625 L 10.859375 -1.71875 C 10.859375 -1.257812 10.972656 -0.953125 11.203125 -0.796875 C 11.429688 -0.648438 11.820312 -0.578125 12.375 -0.578125 L 12.375 0 L 3.5625 0 L 3.5625 -0.578125 C 4.113281 -0.578125 4.5 -0.648438 4.71875 -0.796875 C 4.9375 -0.953125 5.046875 -1.257812 5.046875 -1.71875 L 5.046875 -28.015625 C 5.046875 -28.515625 4.953125 -28.84375 4.765625 -29 C 4.585938 -29.164062 4.1875 -29.25 3.5625 -29.25 L 3.5625 -29.828125 Z M 12.375 -29.828125 "/></g></g></g><g fill="#ff922b" fill-opacity="1"><g transform="translate(146.616583, 31.483457)"><g><path d="M 11.390625 -29.828125 L 11.390625 -29.25 C 10.835938 -29.25 10.492188 -29.148438 10.359375 -28.953125 C 10.222656 -28.765625 10.15625 -28.453125 10.15625 -28.015625 L 10.15625 -4.828125 L 29.09375 -4.828125 C 30.019531 -4.828125 30.484375 -5.15625 30.484375 -5.8125 L 31.046875 -5.8125 L 31.046875 0.90625 L 30.484375 0.90625 C 30.484375 0.300781 30.019531 0 29.09375 0 L 3.28125 0 L 3.28125 -0.578125 C 3.738281 -0.578125 4.03125 -0.664062 4.15625 -0.84375 C 4.28125 -1.019531 4.34375 -1.335938 4.34375 -1.796875 L 4.34375 -28.015625 C 4.34375 -28.453125 4.28125 -28.765625 4.15625 -28.953125 C 4.03125 -29.148438 3.738281 -29.25 3.28125 -29.25 L 3.28125 -29.828125 Z M 11.390625 -29.828125 "/></g></g></g><g fill="#ff922b" fill-opacity="1"><g transform="translate(181.882213, 31.483457)"><g><path d="M 12.65625 -12.53125 L 22.40625 -12.53125 L 17.5 -23.265625 Z M 22.328125 -29.828125 L 22.328125 -29.25 C 21.753906 -29.164062 21.46875 -28.960938 21.46875 -28.640625 C 21.46875 -28.421875 21.535156 -28.179688 21.671875 -27.921875 C 21.804688 -27.660156 21.941406 -27.367188 22.078125 -27.046875 L 33.71875 -2.125 C 33.988281 -1.550781 34.207031 -1.148438 34.375 -0.921875 C 34.539062 -0.691406 34.851562 -0.578125 35.3125 -0.578125 L 35.3125 0 L 27.15625 0 L 27.15625 -0.578125 C 27.65625 -0.578125 27.90625 -0.710938 27.90625 -0.984375 C 27.90625 -1.117188 27.847656 -1.320312 27.734375 -1.59375 C 27.628906 -1.863281 27.476562 -2.191406 27.28125 -2.578125 L 24.78125 -7.859375 L 10.734375 -7.859375 C 10.128906 -6.523438 9.632812 -5.445312 9.25 -4.625 C 8.875 -3.8125 8.578125 -3.1875 8.359375 -2.75 C 8.171875 -2.363281 8.019531 -2.039062 7.90625 -1.78125 C 7.800781 -1.519531 7.75 -1.320312 7.75 -1.1875 C 7.75 -0.832031 7.953125 -0.628906 8.359375 -0.578125 L 8.359375 0 L 1.0625 0 L 1.0625 -0.578125 C 1.5 -0.597656 1.804688 -0.722656 1.984375 -0.953125 C 2.160156 -1.191406 2.375 -1.582031 2.625 -2.125 L 13.8125 -27.28125 C 13.914062 -27.5 14.015625 -27.71875 14.109375 -27.9375 C 14.203125 -28.15625 14.25 -28.347656 14.25 -28.515625 C 14.25 -28.921875 13.960938 -29.164062 13.390625 -29.25 L 13.390625 -29.828125 Z M 22.328125 -29.828125 "/></g></g></g><g fill="#ff922b" fill-opacity="1"><g transform="translate(221.694233, 31.483457)"><g/></g></g><g fill="#ff922b" fill-opacity="1"><g transform="translate(241.027018, 31.483457)"><g><path d="M 12.65625 -12.53125 L 22.40625 -12.53125 L 17.5 -23.265625 Z M 22.328125 -29.828125 L 22.328125 -29.25 C 21.753906 -29.164062 21.46875 -28.960938 21.46875 -28.640625 C 21.46875 -28.421875 21.535156 -28.179688 21.671875 -27.921875 C 21.804688 -27.660156 21.941406 -27.367188 22.078125 -27.046875 L 33.71875 -2.125 C 33.988281 -1.550781 34.207031 -1.148438 34.375 -0.921875 C 34.539062 -0.691406 34.851562 -0.578125 35.3125 -0.578125 L 35.3125 0 L 27.15625 0 L 27.15625 -0.578125 C 27.65625 -0.578125 27.90625 -0.710938 27.90625 -0.984375 C 27.90625 -1.117188 27.847656 -1.320312 27.734375 -1.59375 C 27.628906 -1.863281 27.476562 -2.191406 27.28125 -2.578125 L 24.78125 -7.859375 L 10.734375 -7.859375 C 10.128906 -6.523438 9.632812 -5.445312 9.25 -4.625 C 8.875 -3.8125 8.578125 -3.1875 8.359375 -2.75 C 8.171875 -2.363281 8.019531 -2.039062 7.90625 -1.78125 C 7.800781 -1.519531 7.75 -1.320312 7.75 -1.1875 C 7.75 -0.832031 7.953125 -0.628906 8.359375 -0.578125 L 8.359375 0 L 1.0625 0 L 1.0625 -0.578125 C 1.5 -0.597656 1.804688 -0.722656 1.984375 -0.953125 C 2.160156 -1.191406 2.375 -1.582031 2.625 -2.125 L 13.8125 -27.28125 C 13.914062 -27.5 14.015625 -27.71875 14.109375 -27.9375 C 14.203125 -28.15625 14.25 -28.347656 14.25 -28.515625 C 14.25 -28.921875 13.960938 -29.164062 13.390625 -29.25 L 13.390625 -29.828125 Z M 22.328125 -29.828125 "/></g></g></g><g fill="#ff922b" fill-opacity="1"><g transform="translate(280.839015, 31.483457)"><g><path d="M 11.875 -29.828125 L 11.875 -29.25 C 11.300781 -29.25 11.015625 -29.054688 11.015625 -28.671875 C 11.015625 -28.515625 11.222656 -28.175781 11.640625 -27.65625 L 17.203125 -20.203125 L 23.03125 -27.6875 C 23.132812 -27.832031 23.253906 -28.003906 23.390625 -28.203125 C 23.523438 -28.410156 23.59375 -28.582031 23.59375 -28.71875 C 23.59375 -28.882812 23.523438 -29.015625 23.390625 -29.109375 C 23.253906 -29.203125 23.09375 -29.25 22.90625 -29.25 L 22.90625 -29.828125 L 32 -29.828125 L 32 -29.25 C 31.445312 -29.21875 30.992188 -29.09375 30.640625 -28.875 C 30.285156 -28.664062 29.847656 -28.21875 29.328125 -27.53125 L 20.40625 -16.015625 L 31.21875 -1.640625 C 31.519531 -1.253906 31.78125 -0.984375 32 -0.828125 C 32.21875 -0.679688 32.53125 -0.597656 32.9375 -0.578125 L 32.9375 0 L 23.359375 0 L 23.359375 -0.578125 C 23.679688 -0.578125 23.890625 -0.613281 23.984375 -0.6875 C 24.078125 -0.769531 24.125 -0.910156 24.125 -1.109375 C 24.125 -1.296875 23.976562 -1.570312 23.6875 -1.9375 C 23.40625 -2.3125 23.019531 -2.828125 22.53125 -3.484375 L 16.671875 -11.21875 L 10 -2.625 C 9.695312 -2.238281 9.460938 -1.9375 9.296875 -1.71875 C 9.128906 -1.5 9.046875 -1.296875 9.046875 -1.109375 C 9.046875 -0.753906 9.335938 -0.578125 9.921875 -0.578125 L 9.921875 0 L 1.1875 0 L 1.1875 -0.578125 C 1.59375 -0.597656 1.925781 -0.734375 2.1875 -0.984375 C 2.445312 -1.234375 2.8125 -1.671875 3.28125 -2.296875 L 13.515625 -15.4375 L 4.59375 -27.328125 C 4.34375 -27.648438 4.128906 -27.9375 3.953125 -28.1875 C 3.773438 -28.4375 3.609375 -28.632812 3.453125 -28.78125 C 3.304688 -28.925781 3.132812 -29.039062 2.9375 -29.125 C 2.75 -29.207031 2.507812 -29.25 2.21875 -29.25 L 2.21875 -29.828125 Z M 11.875 -29.828125 "/></g></g></g><g clip-path="url(#42161b5185)"><g fill="#ff922b" fill-opacity="1"><g transform="translate(318.357358, 31.483457)"><g><path d="M 31.671875 -23.921875 L 31.09375 -23.921875 C 31.09375 -24.628906 30.644531 -24.984375 29.75 -24.984375 L 10 -24.984375 L 10 -17.703125 L 22.859375 -17.703125 C 23.296875 -17.703125 23.632812 -17.773438 23.875 -17.921875 C 24.125 -18.078125 24.25 -18.359375 24.25 -18.765625 L 24.828125 -18.765625 L 24.828125 -11.875 L 24.25 -11.875 C 24.25 -12.53125 23.800781 -12.859375 22.90625 -12.859375 L 10 -12.859375 L 10 -4.828125 L 30.078125 -4.828125 C 31.003906 -4.828125 31.46875 -5.15625 31.46875 -5.8125 L 32.03125 -5.8125 L 32.03125 0.90625 L 31.46875 0.90625 C 31.46875 0.300781 31.003906 0 30.078125 0 L 3.109375 0 L 3.109375 -0.578125 C 3.546875 -0.578125 3.832031 -0.65625 3.96875 -0.8125 C 4.101562 -0.976562 4.171875 -1.296875 4.171875 -1.765625 L 4.171875 -28.015625 C 4.171875 -28.453125 4.109375 -28.765625 3.984375 -28.953125 C 3.867188 -29.148438 3.578125 -29.25 3.109375 -29.25 L 3.109375 -29.828125 L 29.703125 -29.828125 C 30.628906 -29.828125 31.09375 -30.125 31.09375 -30.71875 L 31.671875 -30.71875 Z M 31.671875 -23.921875 "/></g></g></g></g><g fill="#ff922b" fill-opacity="1"><g transform="translate(355.875701, 31.483457)"><g><path d="M 11.390625 -29.828125 L 11.390625 -29.25 C 10.835938 -29.25 10.492188 -29.148438 10.359375 -28.953125 C 10.222656 -28.765625 10.15625 -28.453125 10.15625 -28.015625 L 10.15625 -4.828125 L 29.09375 -4.828125 C 30.019531 -4.828125 30.484375 -5.15625 30.484375 -5.8125 L 31.046875 -5.8125 L 31.046875 0.90625 L 30.484375 0.90625 C 30.484375 0.300781 30.019531 0 29.09375 0 L 3.28125 0 L 3.28125 -0.578125 C 3.738281 -0.578125 4.03125 -0.664062 4.15625 -0.84375 C 4.28125 -1.019531 4.34375 -1.335938 4.34375 -1.796875 L 4.34375 -28.015625 C 4.34375 -28.453125 4.28125 -28.765625 4.15625 -28.953125 C 4.03125 -29.148438 3.738281 -29.25 3.28125 -29.25 L 3.28125 -29.828125 Z M 11.390625 -29.828125 "/></g></g></g><g clip-path="url(#a35e19811a)"><g fill="#ff922b" fill-opacity="1"><g transform="translate(387.372783, 31.483457)"><g><path d="M 1.1875 -30.8125 L 1.765625 -30.8125 C 1.765625 -30.15625 2.226562 -29.828125 3.15625 -29.828125 L 28.765625 -29.828125 C 29.660156 -29.828125 30.109375 -30.15625 30.109375 -30.8125 L 30.6875 -30.8125 L 30.6875 -23.96875 L 30.109375 -23.96875 C 30.109375 -24.644531 29.644531 -24.984375 28.71875 -24.984375 L 18.84375 -24.984375 L 18.84375 -1.71875 C 18.84375 -1.3125 18.925781 -1.019531 19.09375 -0.84375 C 19.257812 -0.664062 19.597656 -0.578125 20.109375 -0.578125 L 20.109375 0 L 11.796875 0 L 11.796875 -0.578125 C 12.316406 -0.578125 12.648438 -0.664062 12.796875 -0.84375 C 12.953125 -1.019531 13.03125 -1.3125 13.03125 -1.71875 L 13.03125 -24.984375 L 3.15625 -24.984375 C 2.226562 -24.984375 1.765625 -24.644531 1.765625 -23.96875 L 1.1875 -23.96875 Z M 1.1875 -30.8125 "/></g></g></g></g><g clip-path="url(#b77a802c52)"><g fill="#ff922b" fill-opacity="1"><g transform="translate(422.638378, 31.483457)"><g><path d="M 31.671875 -23.921875 L 31.09375 -23.921875 C 31.09375 -24.628906 30.644531 -24.984375 29.75 -24.984375 L 10 -24.984375 L 10 -17.703125 L 22.859375 -17.703125 C 23.296875 -17.703125 23.632812 -17.773438 23.875 -17.921875 C 24.125 -18.078125 24.25 -18.359375 24.25 -18.765625 L 24.828125 -18.765625 L 24.828125 -11.875 L 24.25 -11.875 C 24.25 -12.53125 23.800781 -12.859375 22.90625 -12.859375 L 10 -12.859375 L 10 -4.828125 L 30.078125 -4.828125 C 31.003906 -4.828125 31.46875 -5.15625 31.46875 -5.8125 L 32.03125 -5.8125 L 32.03125 0.90625 L 31.46875 0.90625 C 31.46875 0.300781 31.003906 0 30.078125 0 L 3.109375 0 L 3.109375 -0.578125 C 3.546875 -0.578125 3.832031 -0.65625 3.96875 -0.8125 C 4.101562 -0.976562 4.171875 -1.296875 4.171875 -1.765625 L 4.171875 -28.015625 C 4.171875 -28.453125 4.109375 -28.765625 3.984375 -28.953125 C 3.867188 -29.148438 3.578125 -29.25 3.109375 -29.25 L 3.109375 -29.828125 L 29.703125 -29.828125 C 30.628906 -29.828125 31.09375 -30.125 31.09375 -30.71875 L 31.671875 -30.71875 Z M 31.671875 -23.921875 "/></g></g></g></g><g fill="#ff922b" fill-opacity="1"><g transform="translate(460.156768, 31.483457)"><g><path d="M 11.4375 -29.828125 L 11.4375 -29.25 C 10.914062 -29.25 10.570312 -29.160156 10.40625 -28.984375 C 10.238281 -28.804688 10.15625 -28.515625 10.15625 -28.109375 L 10.15625 -16.71875 L 23.265625 -27.25 C 24.035156 -27.84375 24.519531 -28.226562 24.71875 -28.40625 C 24.925781 -28.582031 25.03125 -28.742188 25.03125 -28.890625 C 25.03125 -28.960938 24.984375 -29.039062 24.890625 -29.125 C 24.796875 -29.207031 24.664062 -29.25 24.5 -29.25 L 24.5 -29.828125 L 34.453125 -29.828125 L 34.453125 -29.25 C 33.992188 -29.195312 33.488281 -29 32.9375 -28.65625 C 32.394531 -28.3125 31.863281 -27.9375 31.34375 -27.53125 L 19.875 -18.265625 L 33.46875 -1.796875 C 33.769531 -1.472656 34.050781 -1.203125 34.3125 -0.984375 C 34.570312 -0.765625 34.929688 -0.628906 35.390625 -0.578125 L 35.390625 0 L 25.890625 0 L 25.890625 -0.578125 C 26.191406 -0.597656 26.382812 -0.632812 26.46875 -0.6875 C 26.550781 -0.75 26.59375 -0.832031 26.59375 -0.9375 C 26.59375 -1.070312 26.515625 -1.234375 26.359375 -1.421875 C 26.210938 -1.617188 26.070312 -1.800781 25.9375 -1.96875 L 15.40625 -14.671875 L 10.15625 -10.328125 L 10.15625 -1.796875 C 10.15625 -1.359375 10.226562 -1.046875 10.375 -0.859375 C 10.53125 -0.671875 10.882812 -0.578125 11.4375 -0.578125 L 11.4375 0 L 3.28125 0 L 3.28125 -0.578125 C 3.71875 -0.578125 4.003906 -0.65625 4.140625 -0.8125 C 4.273438 -0.976562 4.34375 -1.296875 4.34375 -1.765625 L 4.34375 -28.015625 C 4.34375 -28.453125 4.28125 -28.765625 4.15625 -28.953125 C 4.03125 -29.148438 3.738281 -29.25 3.28125 -29.25 L 3.28125 -29.828125 Z M 11.4375 -29.828125 "/></g></g></g><g fill="#ff922b" fill-opacity="1"><g transform="translate(499.968765, 31.483457)"><g><path d="M 12 -29.828125 L 12 -29.25 C 11.507812 -29.25 11.203125 -29.191406 11.078125 -29.078125 C 10.953125 -28.972656 10.890625 -28.867188 10.890625 -28.765625 C 10.890625 -28.628906 11.039062 -28.410156 11.34375 -28.109375 L 29.125 -9.21875 L 29.125 -28.109375 C 29.125 -28.546875 29.0625 -28.84375 28.9375 -29 C 28.820312 -29.164062 28.53125 -29.25 28.0625 -29.25 L 28.0625 -29.828125 L 35.390625 -29.828125 L 35.390625 -29.25 C 34.984375 -29.25 34.695312 -29.160156 34.53125 -28.984375 C 34.375 -28.804688 34.296875 -28.484375 34.296875 -28.015625 L 34.296875 -1.84375 C 34.296875 -1.375 34.367188 -1.046875 34.515625 -0.859375 C 34.660156 -0.671875 34.953125 -0.578125 35.390625 -0.578125 L 35.390625 0 L 27.8125 0 L 27.8125 -0.578125 C 28.03125 -0.578125 28.222656 -0.597656 28.390625 -0.640625 C 28.554688 -0.679688 28.640625 -0.769531 28.640625 -0.90625 C 28.640625 -1.0625 28.570312 -1.210938 28.4375 -1.359375 C 28.300781 -1.515625 28.125 -1.71875 27.90625 -1.96875 L 9.421875 -21.796875 L 9.421875 -1.71875 C 9.421875 -1.332031 9.488281 -1.046875 9.625 -0.859375 C 9.757812 -0.671875 10.0625 -0.578125 10.53125 -0.578125 L 10.53125 0 L 3.28125 0 L 3.28125 -0.578125 C 3.71875 -0.578125 3.988281 -0.664062 4.09375 -0.84375 C 4.207031 -1.019531 4.265625 -1.300781 4.265625 -1.6875 L 4.265625 -28.109375 C 4.265625 -28.546875 4.207031 -28.84375 4.09375 -29 C 3.988281 -29.164062 3.71875 -29.25 3.28125 -29.25 L 3.28125 -29.828125 Z M 12 -29.828125 "/></g></g></g><g fill="#ff922b" fill-opacity="1"><g transform="translate(542.033508, 31.483457)"><g><path d="M 12.375 -29.828125 L 12.375 -29.25 C 11.75 -29.25 11.335938 -29.164062 11.140625 -29 C 10.953125 -28.84375 10.859375 -28.515625 10.859375 -28.015625 L 10.859375 -1.71875 C 10.859375 -1.257812 10.972656 -0.953125 11.203125 -0.796875 C 11.429688 -0.648438 11.820312 -0.578125 12.375 -0.578125 L 12.375 0 L 3.5625 0 L 3.5625 -0.578125 C 4.113281 -0.578125 4.5 -0.648438 4.71875 -0.796875 C 4.9375 -0.953125 5.046875 -1.257812 5.046875 -1.71875 L 5.046875 -28.015625 C 5.046875 -28.515625 4.953125 -28.84375 4.765625 -29 C 4.585938 -29.164062 4.1875 -29.25 3.5625 -29.25 L 3.5625 -29.828125 Z M 12.375 -29.828125 "/></g></g></g><g fill="#ff922b" fill-opacity="1"><g transform="translate(561.366293, 31.483457)"><g><path d="M 11.4375 -29.828125 L 11.4375 -29.25 C 10.914062 -29.25 10.570312 -29.160156 10.40625 -28.984375 C 10.238281 -28.804688 10.15625 -28.515625 10.15625 -28.109375 L 10.15625 -16.71875 L 23.265625 -27.25 C 24.035156 -27.84375 24.519531 -28.226562 24.71875 -28.40625 C 24.925781 -28.582031 25.03125 -28.742188 25.03125 -28.890625 C 25.03125 -28.960938 24.984375 -29.039062 24.890625 -29.125 C 24.796875 -29.207031 24.664062 -29.25 24.5 -29.25 L 24.5 -29.828125 L 34.453125 -29.828125 L 34.453125 -29.25 C 33.992188 -29.195312 33.488281 -29 32.9375 -28.65625 C 32.394531 -28.3125 31.863281 -27.9375 31.34375 -27.53125 L 19.875 -18.265625 L 33.46875 -1.796875 C 33.769531 -1.472656 34.050781 -1.203125 34.3125 -0.984375 C 34.570312 -0.765625 34.929688 -0.628906 35.390625 -0.578125 L 35.390625 0 L 25.890625 0 L 25.890625 -0.578125 C 26.191406 -0.597656 26.382812 -0.632812 26.46875 -0.6875 C 26.550781 -0.75 26.59375 -0.832031 26.59375 -0.9375 C 26.59375 -1.070312 26.515625 -1.234375 26.359375 -1.421875 C 26.210938 -1.617188 26.070312 -1.800781 25.9375 -1.96875 L 15.40625 -14.671875 L 10.15625 -10.328125 L 10.15625 -1.796875 C 10.15625 -1.359375 10.226562 -1.046875 10.375 -0.859375 C 10.53125 -0.671875 10.882812 -0.578125 11.4375 -0.578125 L 11.4375 0 L 3.28125 0 L 3.28125 -0.578125 C 3.71875 -0.578125 4.003906 -0.65625 4.140625 -0.8125 C 4.273438 -0.976562 4.34375 -1.296875 4.34375 -1.765625 L 4.34375 -28.015625 C 4.34375 -28.453125 4.28125 -28.765625 4.15625 -28.953125 C 4.03125 -29.148438 3.738281 -29.25 3.28125 -29.25 L 3.28125 -29.828125 Z M 11.4375 -29.828125 "/></g></g></g></g></g><g transform="matrix(1, 0, 0, 1, 546, 167)"><g clip-path="url(#92e369f88b)"><g fill="#ff922b" fill-opacity="1"><g transform="translate(1.514405, 18.099837)"><g><path d="M 13.40625 -9.328125 C 14.289062 -9.328125 14.988281 -9.566406 15.5 -10.046875 C 16.019531 -10.523438 16.28125 -11.253906 16.28125 -12.234375 C 16.28125 -13.046875 15.972656 -13.679688 15.359375 -14.140625 C 14.753906 -14.609375 13.96875 -14.84375 13 -14.84375 L 5.25 -14.84375 L 5.25 -9.328125 Z M 12.96875 -16.890625 C 13.789062 -16.890625 14.546875 -16.785156 15.234375 -16.578125 C 15.929688 -16.367188 16.53125 -16.054688 17.03125 -15.640625 C 17.539062 -15.234375 17.9375 -14.734375 18.21875 -14.140625 C 18.507812 -13.546875 18.65625 -12.867188 18.65625 -12.109375 C 18.65625 -11.429688 18.550781 -10.8125 18.34375 -10.25 C 18.132812 -9.695312 17.832031 -9.222656 17.4375 -8.828125 C 17.039062 -8.429688 16.5625 -8.117188 16 -7.890625 C 15.4375 -7.671875 14.804688 -7.554688 14.109375 -7.546875 L 18.28125 -0.765625 C 18.40625 -0.597656 18.515625 -0.476562 18.609375 -0.40625 C 18.710938 -0.332031 18.914062 -0.289062 19.21875 -0.28125 L 19.21875 0 L 14.828125 0 L 14.828125 -0.28125 C 15.140625 -0.289062 15.347656 -0.320312 15.453125 -0.375 C 15.554688 -0.4375 15.609375 -0.535156 15.609375 -0.671875 C 15.609375 -0.804688 15.546875 -0.972656 15.421875 -1.171875 C 15.304688 -1.378906 15.140625 -1.671875 14.921875 -2.046875 L 11.6875 -7.28125 L 5.25 -7.28125 L 5.25 -0.859375 C 5.25 -0.628906 5.289062 -0.472656 5.375 -0.390625 C 5.457031 -0.316406 5.660156 -0.28125 5.984375 -0.28125 L 5.984375 0 L 2.140625 0 L 2.140625 -0.28125 C 2.460938 -0.28125 2.664062 -0.316406 2.75 -0.390625 C 2.832031 -0.472656 2.875 -0.617188 2.875 -0.828125 L 2.875 -16.0625 C 2.875 -16.269531 2.832031 -16.410156 2.75 -16.484375 C 2.664062 -16.566406 2.460938 -16.609375 2.140625 -16.609375 L 2.140625 -16.890625 Z M 12.96875 -16.890625 "/></g></g></g><g clip-path="url(#3449d5942b)"><g fill="#ff922b" fill-opacity="1"><g transform="translate(24.671461, 18.099837)"><g><path d="M 17.90625 -17.640625 L 17.90625 -14.109375 L 17.640625 -14.109375 C 17.609375 -14.304688 17.554688 -14.476562 17.484375 -14.625 C 17.410156 -14.769531 17.242188 -14.84375 16.984375 -14.84375 L 5.015625 -14.84375 L 5.015625 -9.515625 L 13.4375 -9.515625 C 13.65625 -9.515625 13.804688 -9.566406 13.890625 -9.671875 C 13.972656 -9.785156 14.03125 -9.976562 14.0625 -10.25 L 14.34375 -10.25 L 14.34375 -6.640625 L 14.0625 -6.640625 C 14.03125 -6.972656 13.960938 -7.191406 13.859375 -7.296875 C 13.765625 -7.410156 13.613281 -7.46875 13.40625 -7.46875 L 5.015625 -7.46875 L 5.015625 -2.046875 L 16.9375 -2.046875 C 17.164062 -2.046875 17.328125 -2.09375 17.421875 -2.1875 C 17.515625 -2.28125 17.585938 -2.476562 17.640625 -2.78125 L 17.90625 -2.78125 L 17.90625 0.75 L 17.640625 0.75 C 17.585938 0.4375 17.515625 0.234375 17.421875 0.140625 C 17.328125 0.046875 17.164062 0 16.9375 0 L 1.953125 0 L 1.953125 -0.28125 C 2.242188 -0.28125 2.429688 -0.3125 2.515625 -0.375 C 2.597656 -0.445312 2.640625 -0.582031 2.640625 -0.78125 L 2.640625 -16.078125 C 2.640625 -16.296875 2.597656 -16.4375 2.515625 -16.5 C 2.429688 -16.570312 2.242188 -16.609375 1.953125 -16.609375 L 1.953125 -16.890625 L 16.96875 -16.890625 C 17.195312 -16.890625 17.351562 -16.9375 17.4375 -17.03125 C 17.519531 -17.132812 17.585938 -17.335938 17.640625 -17.640625 Z M 17.90625 -17.640625 "/></g></g></g></g><g clip-path="url(#b853281da2)"><g fill="#ff922b" fill-opacity="1"><g transform="translate(46.52915, 18.099837)"><g><path d="M 11.0625 -17.125 C 12.269531 -17.125 13.390625 -17.003906 14.421875 -16.765625 C 15.453125 -16.523438 16.523438 -16.140625 17.640625 -15.609375 C 18.066406 -15.410156 18.34375 -15.3125 18.46875 -15.3125 C 18.601562 -15.3125 18.757812 -15.425781 18.9375 -15.65625 L 19.21875 -15.5 L 17.515625 -12.25 L 17.171875 -12.4375 C 17.210938 -12.570312 17.234375 -12.6875 17.234375 -12.78125 C 17.234375 -13.03125 17.082031 -13.296875 16.78125 -13.578125 C 16.476562 -13.867188 16.0625 -14.128906 15.53125 -14.359375 C 15 -14.585938 14.375 -14.78125 13.65625 -14.9375 C 12.9375 -15.09375 12.148438 -15.171875 11.296875 -15.171875 C 10.179688 -15.171875 9.15625 -15.007812 8.21875 -14.6875 C 7.289062 -14.375 6.476562 -13.925781 5.78125 -13.34375 C 5.09375 -12.769531 4.5625 -12.066406 4.1875 -11.234375 C 3.8125 -10.410156 3.625 -9.5 3.625 -8.5 C 3.625 -7.476562 3.804688 -6.546875 4.171875 -5.703125 C 4.546875 -4.867188 5.0625 -4.15625 5.71875 -3.5625 C 6.375 -2.976562 7.144531 -2.523438 8.03125 -2.203125 C 8.925781 -1.878906 9.898438 -1.71875 10.953125 -1.71875 C 11.835938 -1.71875 12.679688 -1.832031 13.484375 -2.0625 C 14.285156 -2.289062 14.988281 -2.566406 15.59375 -2.890625 C 16.207031 -3.222656 16.703125 -3.5625 17.078125 -3.90625 C 17.453125 -4.257812 17.640625 -4.550781 17.640625 -4.78125 C 17.640625 -4.96875 17.609375 -5.15625 17.546875 -5.34375 L 17.734375 -5.46875 L 19.90625 -2.6875 L 19.71875 -2.546875 C 19.644531 -2.628906 19.5625 -2.6875 19.46875 -2.71875 C 19.375 -2.757812 19.265625 -2.78125 19.140625 -2.78125 C 19.003906 -2.78125 18.820312 -2.691406 18.59375 -2.515625 C 18.375 -2.335938 18.140625 -2.164062 17.890625 -2 C 17.546875 -1.75 17.148438 -1.488281 16.703125 -1.21875 C 16.253906 -0.957031 15.738281 -0.71875 15.15625 -0.5 C 14.582031 -0.289062 13.925781 -0.117188 13.1875 0.015625 C 12.457031 0.160156 11.628906 0.234375 10.703125 0.234375 C 9.523438 0.234375 8.367188 0.0234375 7.234375 -0.390625 C 6.109375 -0.804688 5.097656 -1.394531 4.203125 -2.15625 C 3.316406 -2.914062 2.601562 -3.828125 2.0625 -4.890625 C 1.519531 -5.960938 1.25 -7.148438 1.25 -8.453125 C 1.25 -9.742188 1.519531 -10.921875 2.0625 -11.984375 C 2.601562 -13.046875 3.328125 -13.957031 4.234375 -14.71875 C 5.140625 -15.488281 6.179688 -16.082031 7.359375 -16.5 C 8.546875 -16.914062 9.78125 -17.125 11.0625 -17.125 Z M 11.0625 -17.125 "/></g></g></g></g><g fill="#ff922b" fill-opacity="1"><g transform="translate(69.686206, 18.099837)"><g><path d="M 5.609375 -16.890625 L 5.609375 -16.609375 C 5.398438 -16.609375 5.253906 -16.570312 5.171875 -16.5 C 5.097656 -16.4375 5.0625 -16.296875 5.0625 -16.078125 L 5.0625 -0.859375 C 5.0625 -0.609375 5.097656 -0.445312 5.171875 -0.375 C 5.253906 -0.3125 5.398438 -0.28125 5.609375 -0.28125 L 5.609375 0 L 2.140625 0 L 2.140625 -0.28125 C 2.347656 -0.28125 2.488281 -0.316406 2.5625 -0.390625 C 2.644531 -0.472656 2.6875 -0.617188 2.6875 -0.828125 L 2.6875 -16.078125 C 2.6875 -16.296875 2.644531 -16.4375 2.5625 -16.5 C 2.488281 -16.570312 2.347656 -16.609375 2.140625 -16.609375 L 2.140625 -16.890625 Z M 5.609375 -16.890625 "/></g></g></g><g clip-path="url(#8a85cf45b8)"><g fill="#ff922b" fill-opacity="1"><g transform="translate(79.942396, 18.099837)"><g><path d="M 9.65625 -17.125 C 11 -17.125 12.15625 -16.988281 13.125 -16.71875 C 14.101562 -16.445312 14.898438 -16.1875 15.515625 -15.9375 C 15.828125 -15.8125 16.09375 -15.695312 16.3125 -15.59375 C 16.53125 -15.5 16.6875 -15.453125 16.78125 -15.453125 C 16.882812 -15.453125 17.050781 -15.546875 17.28125 -15.734375 L 17.5625 -15.640625 L 16.125 -12.625 L 15.828125 -12.765625 C 15.828125 -12.796875 15.828125 -12.832031 15.828125 -12.875 C 15.835938 -12.925781 15.84375 -12.984375 15.84375 -13.046875 C 15.84375 -13.191406 15.671875 -13.390625 15.328125 -13.640625 C 14.992188 -13.890625 14.53125 -14.125 13.9375 -14.34375 C 13.351562 -14.570312 12.65625 -14.765625 11.84375 -14.921875 C 11.03125 -15.085938 10.15625 -15.171875 9.21875 -15.171875 C 8.46875 -15.171875 7.78125 -15.097656 7.15625 -14.953125 C 6.539062 -14.816406 6.007812 -14.613281 5.5625 -14.34375 C 5.113281 -14.070312 4.765625 -13.75 4.515625 -13.375 C 4.273438 -13.007812 4.15625 -12.597656 4.15625 -12.140625 C 4.15625 -11.609375 4.3125 -11.191406 4.625 -10.890625 C 4.945312 -10.585938 5.382812 -10.351562 5.9375 -10.1875 C 6.5 -10.019531 7.164062 -9.894531 7.9375 -9.8125 C 8.707031 -9.738281 9.554688 -9.671875 10.484375 -9.609375 C 11.460938 -9.523438 12.394531 -9.414062 13.28125 -9.28125 C 14.175781 -9.15625 14.960938 -8.929688 15.640625 -8.609375 C 16.316406 -8.296875 16.859375 -7.859375 17.265625 -7.296875 C 17.679688 -6.742188 17.890625 -6.003906 17.890625 -5.078125 C 17.890625 -4.242188 17.695312 -3.5 17.3125 -2.84375 C 16.925781 -2.1875 16.382812 -1.628906 15.6875 -1.171875 C 14.988281 -0.710938 14.15625 -0.363281 13.1875 -0.125 C 12.21875 0.113281 11.148438 0.234375 9.984375 0.234375 C 8.421875 0.234375 7.09375 0.078125 6 -0.234375 C 4.90625 -0.546875 4.007812 -0.878906 3.3125 -1.234375 C 3.039062 -1.367188 2.78125 -1.507812 2.53125 -1.65625 C 2.28125 -1.800781 2.09375 -1.875 1.96875 -1.875 C 1.894531 -1.875 1.816406 -1.851562 1.734375 -1.8125 C 1.660156 -1.78125 1.570312 -1.6875 1.46875 -1.53125 L 1.15625 -1.671875 L 2.859375 -4.96875 L 3.125 -4.796875 C 3.101562 -4.703125 3.082031 -4.625 3.0625 -4.5625 C 3.050781 -4.507812 3.046875 -4.453125 3.046875 -4.390625 C 3.046875 -4.140625 3.242188 -3.859375 3.640625 -3.546875 C 4.046875 -3.242188 4.578125 -2.957031 5.234375 -2.6875 C 5.890625 -2.414062 6.640625 -2.1875 7.484375 -2 C 8.328125 -1.8125 9.195312 -1.71875 10.09375 -1.71875 C 11.875 -1.71875 13.269531 -2.003906 14.28125 -2.578125 C 15.289062 -3.160156 15.796875 -3.945312 15.796875 -4.9375 C 15.796875 -5.539062 15.59375 -6 15.1875 -6.3125 C 14.78125 -6.632812 14.25 -6.875 13.59375 -7.03125 C 12.945312 -7.1875 12.210938 -7.285156 11.390625 -7.328125 C 10.566406 -7.378906 9.75 -7.4375 8.9375 -7.5 C 8.019531 -7.5625 7.144531 -7.664062 6.3125 -7.8125 C 5.488281 -7.957031 4.757812 -8.195312 4.125 -8.53125 C 3.488281 -8.863281 2.984375 -9.3125 2.609375 -9.875 C 2.242188 -10.4375 2.0625 -11.175781 2.0625 -12.09375 C 2.0625 -12.832031 2.25 -13.503906 2.625 -14.109375 C 3.007812 -14.722656 3.539062 -15.253906 4.21875 -15.703125 C 4.90625 -16.148438 5.707031 -16.5 6.625 -16.75 C 7.539062 -17 8.550781 -17.125 9.65625 -17.125 Z M 9.65625 -17.125 "/></g></g></g></g><g fill="#ff922b" fill-opacity="1"><g transform="translate(101.800086, 18.099837)"><g><path d="M 5.609375 -16.890625 L 5.609375 -16.609375 C 5.398438 -16.609375 5.253906 -16.570312 5.171875 -16.5 C 5.097656 -16.4375 5.0625 -16.296875 5.0625 -16.078125 L 5.0625 -0.859375 C 5.0625 -0.609375 5.097656 -0.445312 5.171875 -0.375 C 5.253906 -0.3125 5.398438 -0.28125 5.609375 -0.28125 L 5.609375 0 L 2.140625 0 L 2.140625 -0.28125 C 2.347656 -0.28125 2.488281 -0.316406 2.5625 -0.390625 C 2.644531 -0.472656 2.6875 -0.617188 2.6875 -0.828125 L 2.6875 -16.078125 C 2.6875 -16.296875 2.644531 -16.4375 2.5625 -16.5 C 2.488281 -16.570312 2.347656 -16.609375 2.140625 -16.609375 L 2.140625 -16.890625 Z M 5.609375 -16.890625 "/></g></g></g><g clip-path="url(#1312402664)"><g fill="#ff922b" fill-opacity="1"><g transform="translate(112.056276, 18.099837)"><g><path d="M 3.71875 -8.453125 C 3.71875 -7.367188 3.90625 -6.40625 4.28125 -5.5625 C 4.65625 -4.726562 5.171875 -4.023438 5.828125 -3.453125 C 6.492188 -2.878906 7.257812 -2.445312 8.125 -2.15625 C 9 -1.863281 9.941406 -1.71875 10.953125 -1.71875 C 11.941406 -1.71875 12.875 -1.859375 13.75 -2.140625 C 14.625 -2.429688 15.390625 -2.863281 16.046875 -3.4375 C 16.703125 -4.007812 17.222656 -4.710938 17.609375 -5.546875 C 17.992188 -6.378906 18.1875 -7.347656 18.1875 -8.453125 C 18.1875 -9.484375 18.003906 -10.414062 17.640625 -11.25 C 17.273438 -12.082031 16.769531 -12.789062 16.125 -13.375 C 15.488281 -13.957031 14.722656 -14.398438 13.828125 -14.703125 C 12.941406 -15.015625 11.972656 -15.171875 10.921875 -15.171875 C 9.953125 -15.171875 9.03125 -15.023438 8.15625 -14.734375 C 7.28125 -14.453125 6.515625 -14.023438 5.859375 -13.453125 C 5.203125 -12.878906 4.679688 -12.175781 4.296875 -11.34375 C 3.910156 -10.507812 3.71875 -9.546875 3.71875 -8.453125 Z M 10.953125 -17.125 C 12.203125 -17.125 13.40625 -16.929688 14.5625 -16.546875 C 15.726562 -16.160156 16.753906 -15.59375 17.640625 -14.84375 C 18.535156 -14.101562 19.242188 -13.1875 19.765625 -12.09375 C 20.296875 -11.007812 20.5625 -9.769531 20.5625 -8.375 C 20.5625 -7.070312 20.304688 -5.894531 19.796875 -4.84375 C 19.296875 -3.789062 18.609375 -2.882812 17.734375 -2.125 C 16.859375 -1.375 15.84375 -0.789062 14.6875 -0.375 C 13.539062 0.03125 12.316406 0.234375 11.015625 0.234375 C 9.703125 0.234375 8.460938 0.0351562 7.296875 -0.359375 C 6.128906 -0.753906 5.101562 -1.328125 4.21875 -2.078125 C 3.34375 -2.828125 2.644531 -3.738281 2.125 -4.8125 C 1.601562 -5.882812 1.34375 -7.101562 1.34375 -8.46875 C 1.34375 -9.78125 1.597656 -10.96875 2.109375 -12.03125 C 2.617188 -13.101562 3.3125 -14.019531 4.1875 -14.78125 C 5.0625 -15.539062 6.078125 -16.117188 7.234375 -16.515625 C 8.398438 -16.921875 9.640625 -17.125 10.953125 -17.125 Z M 10.953125 -17.125 "/></g></g></g></g><g fill="#ff922b" fill-opacity="1"><g transform="translate(136.489496, 18.099837)"><g><path d="M 6.734375 -16.890625 L 6.734375 -16.609375 C 6.578125 -16.609375 6.4375 -16.582031 6.3125 -16.53125 C 6.1875 -16.476562 6.125 -16.394531 6.125 -16.28125 C 6.125 -16.175781 6.191406 -16.035156 6.328125 -15.859375 C 6.472656 -15.691406 6.738281 -15.382812 7.125 -14.9375 L 17.03125 -3.34375 L 17.03125 -16.0625 C 17.03125 -16.269531 16.988281 -16.410156 16.90625 -16.484375 C 16.820312 -16.566406 16.613281 -16.609375 16.28125 -16.609375 L 16.28125 -16.890625 L 19.859375 -16.890625 L 19.859375 -16.609375 C 19.503906 -16.609375 19.285156 -16.566406 19.203125 -16.484375 C 19.117188 -16.410156 19.078125 -16.269531 19.078125 -16.0625 L 19.078125 -0.828125 C 19.078125 -0.617188 19.117188 -0.472656 19.203125 -0.390625 C 19.285156 -0.316406 19.503906 -0.28125 19.859375 -0.28125 L 19.859375 0 L 15.875 0 L 15.875 -0.28125 C 16.125 -0.289062 16.273438 -0.320312 16.328125 -0.375 C 16.390625 -0.4375 16.421875 -0.503906 16.421875 -0.578125 C 16.421875 -0.671875 16.394531 -0.753906 16.34375 -0.828125 C 16.289062 -0.910156 16.195312 -1.035156 16.0625 -1.203125 L 4.875 -14.25 L 4.875 -0.828125 C 4.875 -0.585938 4.921875 -0.4375 5.015625 -0.375 C 5.117188 -0.3125 5.316406 -0.28125 5.609375 -0.28125 L 5.609375 0 L 2.046875 0 L 2.046875 -0.28125 C 2.378906 -0.28125 2.59375 -0.3125 2.6875 -0.375 C 2.78125 -0.445312 2.828125 -0.597656 2.828125 -0.828125 L 2.828125 -16.078125 C 2.828125 -16.296875 2.773438 -16.4375 2.671875 -16.5 C 2.578125 -16.570312 2.367188 -16.609375 2.046875 -16.609375 L 2.046875 -16.890625 Z M 6.734375 -16.890625 "/></g></g></g><g fill="#ff922b" fill-opacity="1"><g transform="translate(160.922715, 18.099837)"><g/></g></g><g fill="#ff922b" fill-opacity="1"><g transform="translate(172.478283, 18.099837)"><g><path d="M 5.609375 -16.890625 L 5.609375 -16.609375 C 5.398438 -16.609375 5.253906 -16.570312 5.171875 -16.5 C 5.097656 -16.4375 5.0625 -16.296875 5.0625 -16.078125 L 5.0625 -0.859375 C 5.0625 -0.609375 5.097656 -0.445312 5.171875 -0.375 C 5.253906 -0.3125 5.398438 -0.28125 5.609375 -0.28125 L 5.609375 0 L 2.140625 0 L 2.140625 -0.28125 C 2.347656 -0.28125 2.488281 -0.316406 2.5625 -0.390625 C 2.644531 -0.472656 2.6875 -0.617188 2.6875 -0.828125 L 2.6875 -16.078125 C 2.6875 -16.296875 2.644531 -16.4375 2.5625 -16.5 C 2.488281 -16.570312 2.347656 -16.609375 2.140625 -16.609375 L 2.140625 -16.890625 Z M 5.609375 -16.890625 "/></g></g></g><g fill="#ff922b" fill-opacity="1"><g transform="translate(182.734473, 18.099837)"><g/></g></g><g fill="#ff922b" fill-opacity="1"><g transform="translate(194.290041, 18.099837)"><g><path d="M 4.78125 -16.890625 L 4.78125 -16.609375 C 4.457031 -16.597656 4.234375 -16.5625 4.109375 -16.5 C 3.984375 -16.4375 3.921875 -16.34375 3.921875 -16.21875 C 3.921875 -16.1875 3.921875 -16.148438 3.921875 -16.109375 C 3.929688 -16.078125 3.945312 -16.015625 3.96875 -15.921875 C 4 -15.828125 4.046875 -15.703125 4.109375 -15.546875 C 4.171875 -15.390625 4.265625 -15.171875 4.390625 -14.890625 L 9.796875 -2.203125 L 15.296875 -15.265625 C 15.441406 -15.640625 15.535156 -15.882812 15.578125 -16 C 15.617188 -16.113281 15.640625 -16.195312 15.640625 -16.25 C 15.640625 -16.332031 15.566406 -16.40625 15.421875 -16.46875 C 15.285156 -16.53125 15.125 -16.578125 14.9375 -16.609375 L 14.9375 -16.890625 L 18.859375 -16.890625 L 18.859375 -16.609375 C 18.691406 -16.597656 18.550781 -16.578125 18.4375 -16.546875 C 18.332031 -16.523438 18.238281 -16.476562 18.15625 -16.40625 C 18.082031 -16.34375 18.015625 -16.253906 17.953125 -16.140625 C 17.890625 -16.023438 17.820312 -15.863281 17.75 -15.65625 L 11.71875 -1.4375 C 11.613281 -1.207031 11.539062 -1.03125 11.5 -0.90625 C 11.457031 -0.78125 11.4375 -0.671875 11.4375 -0.578125 C 11.4375 -0.378906 11.613281 -0.28125 11.96875 -0.28125 L 11.96875 0 L 7.5625 0 L 7.5625 -0.28125 C 7.75 -0.28125 7.875 -0.300781 7.9375 -0.34375 C 8 -0.394531 8.03125 -0.457031 8.03125 -0.53125 C 8.03125 -0.625 8.015625 -0.707031 7.984375 -0.78125 C 7.960938 -0.863281 7.929688 -0.96875 7.890625 -1.09375 L 1.546875 -15.9375 C 1.441406 -16.1875 1.304688 -16.351562 1.140625 -16.4375 C 0.984375 -16.519531 0.75 -16.578125 0.4375 -16.609375 L 0.4375 -16.890625 Z M 4.78125 -16.890625 "/></g></g></g><g fill="#ff922b" fill-opacity="1"><g transform="translate(213.571823, 18.099837)"><g><path d="M 5.78125 -6.734375 L 13.0625 -6.734375 L 9.328125 -15.03125 Z M 11.671875 -16.890625 L 11.671875 -16.609375 C 11.609375 -16.578125 11.507812 -16.535156 11.375 -16.484375 C 11.25 -16.441406 11.1875 -16.363281 11.1875 -16.25 C 11.1875 -16.164062 11.269531 -15.929688 11.4375 -15.546875 L 18.21875 -0.90625 C 18.320312 -0.675781 18.410156 -0.523438 18.484375 -0.453125 C 18.566406 -0.378906 18.765625 -0.320312 19.078125 -0.28125 L 19.078125 0 L 15.21875 0 L 15.21875 -0.28125 C 15.507812 -0.289062 15.65625 -0.382812 15.65625 -0.5625 C 15.65625 -0.65625 15.628906 -0.757812 15.578125 -0.875 C 15.535156 -1 15.488281 -1.132812 15.4375 -1.28125 C 15.351562 -1.414062 15.195312 -1.753906 14.96875 -2.296875 C 14.738281 -2.835938 14.394531 -3.632812 13.9375 -4.6875 L 4.921875 -4.6875 L 3.53125 -1.328125 C 3.445312 -1.109375 3.382812 -0.957031 3.34375 -0.875 C 3.3125 -0.789062 3.296875 -0.707031 3.296875 -0.625 C 3.296875 -0.550781 3.328125 -0.484375 3.390625 -0.421875 C 3.453125 -0.359375 3.5625 -0.3125 3.71875 -0.28125 L 3.71875 0 L 0.28125 0 L 0.28125 -0.28125 C 0.4375 -0.28125 0.5625 -0.296875 0.65625 -0.328125 C 0.757812 -0.359375 0.847656 -0.414062 0.921875 -0.5 C 1.003906 -0.582031 1.085938 -0.707031 1.171875 -0.875 C 1.253906 -1.050781 1.359375 -1.285156 1.484375 -1.578125 L 7.453125 -15.390625 C 7.523438 -15.566406 7.59375 -15.734375 7.65625 -15.890625 C 7.71875 -16.046875 7.75 -16.171875 7.75 -16.265625 C 7.75 -16.335938 7.722656 -16.40625 7.671875 -16.46875 C 7.617188 -16.53125 7.484375 -16.578125 7.265625 -16.609375 L 7.265625 -16.890625 Z M 11.671875 -16.890625 "/></g></g></g><g fill="#ff922b" fill-opacity="1"><g transform="translate(235.429524, 18.099837)"><g><path d="M 13.40625 -9.328125 C 14.289062 -9.328125 14.988281 -9.566406 15.5 -10.046875 C 16.019531 -10.523438 16.28125 -11.253906 16.28125 -12.234375 C 16.28125 -13.046875 15.972656 -13.679688 15.359375 -14.140625 C 14.753906 -14.609375 13.96875 -14.84375 13 -14.84375 L 5.25 -14.84375 L 5.25 -9.328125 Z M 12.96875 -16.890625 C 13.789062 -16.890625 14.546875 -16.785156 15.234375 -16.578125 C 15.929688 -16.367188 16.53125 -16.054688 17.03125 -15.640625 C 17.539062 -15.234375 17.9375 -14.734375 18.21875 -14.140625 C 18.507812 -13.546875 18.65625 -12.867188 18.65625 -12.109375 C 18.65625 -11.429688 18.550781 -10.8125 18.34375 -10.25 C 18.132812 -9.695312 17.832031 -9.222656 17.4375 -8.828125 C 17.039062 -8.429688 16.5625 -8.117188 16 -7.890625 C 15.4375 -7.671875 14.804688 -7.554688 14.109375 -7.546875 L 18.28125 -0.765625 C 18.40625 -0.597656 18.515625 -0.476562 18.609375 -0.40625 C 18.710938 -0.332031 18.914062 -0.289062 19.21875 -0.28125 L 19.21875 0 L 14.828125 0 L 14.828125 -0.28125 C 15.140625 -0.289062 15.347656 -0.320312 15.453125 -0.375 C 15.554688 -0.4375 15.609375 -0.535156 15.609375 -0.671875 C 15.609375 -0.804688 15.546875 -0.972656 15.421875 -1.171875 C 15.304688 -1.378906 15.140625 -1.671875 14.921875 -2.046875 L 11.6875 -7.28125 L 5.25 -7.28125 L 5.25 -0.859375 C 5.25 -0.628906 5.289062 -0.472656 5.375 -0.390625 C 5.457031 -0.316406 5.660156 -0.28125 5.984375 -0.28125 L 5.984375 0 L 2.140625 0 L 2.140625 -0.28125 C 2.460938 -0.28125 2.664062 -0.316406 2.75 -0.390625 C 2.832031 -0.472656 2.875 -0.617188 2.875 -0.828125 L 2.875 -16.0625 C 2.875 -16.269531 2.832031 -16.410156 2.75 -16.484375 C 2.664062 -16.566406 2.460938 -16.609375 2.140625 -16.609375 L 2.140625 -16.890625 Z M 12.96875 -16.890625 "/></g></g></g><g fill="#ff922b" fill-opacity="1"><g transform="translate(258.586567, 18.099837)"><g><path d="M 13.34375 -16.890625 L 13.34375 -16.609375 C 13.082031 -16.609375 12.90625 -16.570312 12.8125 -16.5 C 12.726562 -16.4375 12.6875 -16.296875 12.6875 -16.078125 L 12.6875 -5.03125 C 12.6875 -3.394531 12.1875 -2.109375 11.1875 -1.171875 C 10.195312 -0.234375 8.601562 0.234375 6.40625 0.234375 C 5.445312 0.234375 4.582031 0.117188 3.8125 -0.109375 C 3.050781 -0.347656 2.453125 -0.550781 2.015625 -0.71875 C 1.648438 -0.875 1.382812 -0.976562 1.21875 -1.03125 C 1.050781 -1.082031 0.90625 -1.109375 0.78125 -1.109375 C 0.664062 -1.109375 0.554688 -1.066406 0.453125 -0.984375 C 0.347656 -0.898438 0.28125 -0.832031 0.25 -0.78125 L 0.015625 -0.875 L 1.59375 -4.359375 L 1.875 -4.21875 C 1.84375 -4.144531 1.816406 -4.078125 1.796875 -4.015625 C 1.785156 -3.960938 1.78125 -3.898438 1.78125 -3.828125 C 1.78125 -3.671875 1.921875 -3.472656 2.203125 -3.234375 C 2.492188 -2.992188 2.867188 -2.757812 3.328125 -2.53125 C 3.785156 -2.3125 4.300781 -2.117188 4.875 -1.953125 C 5.457031 -1.796875 6.050781 -1.71875 6.65625 -1.71875 C 7.90625 -1.71875 8.828125 -1.984375 9.421875 -2.515625 C 10.023438 -3.046875 10.328125 -3.820312 10.328125 -4.84375 L 10.328125 -16.078125 C 10.328125 -16.296875 10.28125 -16.4375 10.1875 -16.5 C 10.101562 -16.570312 9.929688 -16.609375 9.671875 -16.609375 L 9.671875 -16.890625 Z M 13.34375 -16.890625 "/></g></g></g><g clip-path="url(#020e26f86f)"><g fill="#ff922b" fill-opacity="1"><g transform="translate(276.592574, 18.099837)"><g><path d="M 17.90625 -17.640625 L 17.90625 -14.109375 L 17.640625 -14.109375 C 17.609375 -14.304688 17.554688 -14.476562 17.484375 -14.625 C 17.410156 -14.769531 17.242188 -14.84375 16.984375 -14.84375 L 5.015625 -14.84375 L 5.015625 -9.515625 L 13.4375 -9.515625 C 13.65625 -9.515625 13.804688 -9.566406 13.890625 -9.671875 C 13.972656 -9.785156 14.03125 -9.976562 14.0625 -10.25 L 14.34375 -10.25 L 14.34375 -6.640625 L 14.0625 -6.640625 C 14.03125 -6.972656 13.960938 -7.191406 13.859375 -7.296875 C 13.765625 -7.410156 13.613281 -7.46875 13.40625 -7.46875 L 5.015625 -7.46875 L 5.015625 -2.046875 L 16.9375 -2.046875 C 17.164062 -2.046875 17.328125 -2.09375 17.421875 -2.1875 C 17.515625 -2.28125 17.585938 -2.476562 17.640625 -2.78125 L 17.90625 -2.78125 L 17.90625 0.75 L 17.640625 0.75 C 17.585938 0.4375 17.515625 0.234375 17.421875 0.140625 C 17.328125 0.046875 17.164062 0 16.9375 0 L 1.953125 0 L 1.953125 -0.28125 C 2.242188 -0.28125 2.429688 -0.3125 2.515625 -0.375 C 2.597656 -0.445312 2.640625 -0.582031 2.640625 -0.78125 L 2.640625 -16.078125 C 2.640625 -16.296875 2.597656 -16.4375 2.515625 -16.5 C 2.429688 -16.570312 2.242188 -16.609375 1.953125 -16.609375 L 1.953125 -16.890625 L 16.96875 -16.890625 C 17.195312 -16.890625 17.351562 -16.9375 17.4375 -17.03125 C 17.519531 -17.132812 17.585938 -17.335938 17.640625 -17.640625 Z M 17.90625 -17.640625 "/></g></g></g></g><g fill="#ff922b" fill-opacity="1"><g transform="translate(298.450275, 18.099837)"><g/></g></g><g fill="#ff922b" fill-opacity="1"><g transform="translate(310.005831, 18.099837)"><g><path d="M 6.875 -16.890625 L 6.875 -16.609375 C 6.46875 -16.609375 6.265625 -16.457031 6.265625 -16.15625 C 6.265625 -16.070312 6.28125 -15.976562 6.3125 -15.875 C 6.351562 -15.78125 6.429688 -15.625 6.546875 -15.40625 L 8.609375 -11.234375 L 11.640625 -4.921875 C 13.296875 -8.296875 14.5625 -10.859375 15.4375 -12.609375 C 16.3125 -14.367188 16.789062 -15.332031 16.875 -15.5 C 16.945312 -15.664062 17.003906 -15.800781 17.046875 -15.90625 C 17.097656 -16.019531 17.125 -16.117188 17.125 -16.203125 C 17.125 -16.316406 17.078125 -16.410156 16.984375 -16.484375 C 16.890625 -16.554688 16.71875 -16.597656 16.46875 -16.609375 L 16.46875 -16.890625 L 21.15625 -16.890625 L 21.15625 -16.609375 C 20.863281 -16.609375 20.675781 -16.570312 20.59375 -16.5 C 20.507812 -16.4375 20.46875 -16.296875 20.46875 -16.078125 L 20.46875 -0.8125 C 20.46875 -0.59375 20.507812 -0.445312 20.59375 -0.375 C 20.675781 -0.3125 20.863281 -0.28125 21.15625 -0.28125 L 21.15625 0 L 17.546875 0 L 17.546875 -0.28125 C 17.835938 -0.28125 18.023438 -0.3125 18.109375 -0.375 C 18.191406 -0.445312 18.234375 -0.59375 18.234375 -0.8125 L 18.234375 -13.59375 L 11.5625 -0.234375 L 5.0625 -13.6875 L 5.015625 -13.6875 L 5.015625 -0.828125 C 5.015625 -0.617188 5.050781 -0.472656 5.125 -0.390625 C 5.207031 -0.316406 5.382812 -0.28125 5.65625 -0.28125 L 5.65625 0 L 2.046875 0 L 2.046875 -0.28125 C 2.367188 -0.28125 2.570312 -0.316406 2.65625 -0.390625 C 2.738281 -0.472656 2.78125 -0.617188 2.78125 -0.828125 L 2.78125 -16.078125 C 2.78125 -16.296875 2.734375 -16.4375 2.640625 -16.5 C 2.546875 -16.570312 2.347656 -16.609375 2.046875 -16.609375 L 2.046875 -16.890625 Z M 6.875 -16.890625 "/></g></g></g><g clip-path="url(#4afb94e845)"><g fill="#ff922b" fill-opacity="1"><g transform="translate(335.738417, 18.099837)"><g><path d="M 3.71875 -8.453125 C 3.71875 -7.367188 3.90625 -6.40625 4.28125 -5.5625 C 4.65625 -4.726562 5.171875 -4.023438 5.828125 -3.453125 C 6.492188 -2.878906 7.257812 -2.445312 8.125 -2.15625 C 9 -1.863281 9.941406 -1.71875 10.953125 -1.71875 C 11.941406 -1.71875 12.875 -1.859375 13.75 -2.140625 C 14.625 -2.429688 15.390625 -2.863281 16.046875 -3.4375 C 16.703125 -4.007812 17.222656 -4.710938 17.609375 -5.546875 C 17.992188 -6.378906 18.1875 -7.347656 18.1875 -8.453125 C 18.1875 -9.484375 18.003906 -10.414062 17.640625 -11.25 C 17.273438 -12.082031 16.769531 -12.789062 16.125 -13.375 C 15.488281 -13.957031 14.722656 -14.398438 13.828125 -14.703125 C 12.941406 -15.015625 11.972656 -15.171875 10.921875 -15.171875 C 9.953125 -15.171875 9.03125 -15.023438 8.15625 -14.734375 C 7.28125 -14.453125 6.515625 -14.023438 5.859375 -13.453125 C 5.203125 -12.878906 4.679688 -12.175781 4.296875 -11.34375 C 3.910156 -10.507812 3.71875 -9.546875 3.71875 -8.453125 Z M 10.953125 -17.125 C 12.203125 -17.125 13.40625 -16.929688 14.5625 -16.546875 C 15.726562 -16.160156 16.753906 -15.59375 17.640625 -14.84375 C 18.535156 -14.101562 19.242188 -13.1875 19.765625 -12.09375 C 20.296875 -11.007812 20.5625 -9.769531 20.5625 -8.375 C 20.5625 -7.070312 20.304688 -5.894531 19.796875 -4.84375 C 19.296875 -3.789062 18.609375 -2.882812 17.734375 -2.125 C 16.859375 -1.375 15.84375 -0.789062 14.6875 -0.375 C 13.539062 0.03125 12.316406 0.234375 11.015625 0.234375 C 9.703125 0.234375 8.460938 0.0351562 7.296875 -0.359375 C 6.128906 -0.753906 5.101562 -1.328125 4.21875 -2.078125 C 3.34375 -2.828125 2.644531 -3.738281 2.125 -4.8125 C 1.601562 -5.882812 1.34375 -7.101562 1.34375 -8.46875 C 1.34375 -9.78125 1.597656 -10.96875 2.109375 -12.03125 C 2.617188 -13.101562 3.3125 -14.019531 4.1875 -14.78125 C 5.0625 -15.539062 6.078125 -16.117188 7.234375 -16.515625 C 8.398438 -16.921875 9.640625 -17.125 10.953125 -17.125 Z M 10.953125 -17.125 "/></g></g></g></g><g fill="#ff922b" fill-opacity="1"><g transform="translate(360.171637, 18.099837)"><g><path d="M 6.875 -16.890625 L 6.875 -16.609375 C 6.46875 -16.609375 6.265625 -16.457031 6.265625 -16.15625 C 6.265625 -16.070312 6.28125 -15.976562 6.3125 -15.875 C 6.351562 -15.78125 6.429688 -15.625 6.546875 -15.40625 L 8.609375 -11.234375 L 11.640625 -4.921875 C 13.296875 -8.296875 14.5625 -10.859375 15.4375 -12.609375 C 16.3125 -14.367188 16.789062 -15.332031 16.875 -15.5 C 16.945312 -15.664062 17.003906 -15.800781 17.046875 -15.90625 C 17.097656 -16.019531 17.125 -16.117188 17.125 -16.203125 C 17.125 -16.316406 17.078125 -16.410156 16.984375 -16.484375 C 16.890625 -16.554688 16.71875 -16.597656 16.46875 -16.609375 L 16.46875 -16.890625 L 21.15625 -16.890625 L 21.15625 -16.609375 C 20.863281 -16.609375 20.675781 -16.570312 20.59375 -16.5 C 20.507812 -16.4375 20.46875 -16.296875 20.46875 -16.078125 L 20.46875 -0.8125 C 20.46875 -0.59375 20.507812 -0.445312 20.59375 -0.375 C 20.675781 -0.3125 20.863281 -0.28125 21.15625 -0.28125 L 21.15625 0 L 17.546875 0 L 17.546875 -0.28125 C 17.835938 -0.28125 18.023438 -0.3125 18.109375 -0.375 C 18.191406 -0.445312 18.234375 -0.59375 18.234375 -0.8125 L 18.234375 -13.59375 L 11.5625 -0.234375 L 5.0625 -13.6875 L 5.015625 -13.6875 L 5.015625 -0.828125 C 5.015625 -0.617188 5.050781 -0.472656 5.125 -0.390625 C 5.207031 -0.316406 5.382812 -0.28125 5.65625 -0.28125 L 5.65625 0 L 2.046875 0 L 2.046875 -0.28125 C 2.367188 -0.28125 2.570312 -0.316406 2.65625 -0.390625 C 2.738281 -0.472656 2.78125 -0.617188 2.78125 -0.828125 L 2.78125 -16.078125 C 2.78125 -16.296875 2.734375 -16.4375 2.640625 -16.5 C 2.546875 -16.570312 2.347656 -16.609375 2.046875 -16.609375 L 2.046875 -16.890625 Z M 6.875 -16.890625 "/></g></g></g><g clip-path="url(#ead8093c80)"><g fill="#ff922b" fill-opacity="1"><g transform="translate(385.904223, 18.099837)"><g><path d="M 17.90625 -17.640625 L 17.90625 -14.109375 L 17.640625 -14.109375 C 17.609375 -14.304688 17.554688 -14.476562 17.484375 -14.625 C 17.410156 -14.769531 17.242188 -14.84375 16.984375 -14.84375 L 5.015625 -14.84375 L 5.015625 -9.515625 L 13.4375 -9.515625 C 13.65625 -9.515625 13.804688 -9.566406 13.890625 -9.671875 C 13.972656 -9.785156 14.03125 -9.976562 14.0625 -10.25 L 14.34375 -10.25 L 14.34375 -6.640625 L 14.0625 -6.640625 C 14.03125 -6.972656 13.960938 -7.191406 13.859375 -7.296875 C 13.765625 -7.410156 13.613281 -7.46875 13.40625 -7.46875 L 5.015625 -7.46875 L 5.015625 -2.046875 L 16.9375 -2.046875 C 17.164062 -2.046875 17.328125 -2.09375 17.421875 -2.1875 C 17.515625 -2.28125 17.585938 -2.476562 17.640625 -2.78125 L 17.90625 -2.78125 L 17.90625 0.75 L 17.640625 0.75 C 17.585938 0.4375 17.515625 0.234375 17.421875 0.140625 C 17.328125 0.046875 17.164062 0 16.9375 0 L 1.953125 0 L 1.953125 -0.28125 C 2.242188 -0.28125 2.429688 -0.3125 2.515625 -0.375 C 2.597656 -0.445312 2.640625 -0.582031 2.640625 -0.78125 L 2.640625 -16.078125 C 2.640625 -16.296875 2.597656 -16.4375 2.515625 -16.5 C 2.429688 -16.570312 2.242188 -16.609375 1.953125 -16.609375 L 1.953125 -16.890625 L 16.96875 -16.890625 C 17.195312 -16.890625 17.351562 -16.9375 17.4375 -17.03125 C 17.519531 -17.132812 17.585938 -17.335938 17.640625 -17.640625 Z M 17.90625 -17.640625 "/></g></g></g></g><g fill="#ff922b" fill-opacity="1"><g transform="translate(407.761924, 18.099837)"><g><path d="M 6.734375 -16.890625 L 6.734375 -16.609375 C 6.578125 -16.609375 6.4375 -16.582031 6.3125 -16.53125 C 6.1875 -16.476562 6.125 -16.394531 6.125 -16.28125 C 6.125 -16.175781 6.191406 -16.035156 6.328125 -15.859375 C 6.472656 -15.691406 6.738281 -15.382812 7.125 -14.9375 L 17.03125 -3.34375 L 17.03125 -16.0625 C 17.03125 -16.269531 16.988281 -16.410156 16.90625 -16.484375 C 16.820312 -16.566406 16.613281 -16.609375 16.28125 -16.609375 L 16.28125 -16.890625 L 19.859375 -16.890625 L 19.859375 -16.609375 C 19.503906 -16.609375 19.285156 -16.566406 19.203125 -16.484375 C 19.117188 -16.410156 19.078125 -16.269531 19.078125 -16.0625 L 19.078125 -0.828125 C 19.078125 -0.617188 19.117188 -0.472656 19.203125 -0.390625 C 19.285156 -0.316406 19.503906 -0.28125 19.859375 -0.28125 L 19.859375 0 L 15.875 0 L 15.875 -0.28125 C 16.125 -0.289062 16.273438 -0.320312 16.328125 -0.375 C 16.390625 -0.4375 16.421875 -0.503906 16.421875 -0.578125 C 16.421875 -0.671875 16.394531 -0.753906 16.34375 -0.828125 C 16.289062 -0.910156 16.195312 -1.035156 16.0625 -1.203125 L 4.875 -14.25 L 4.875 -0.828125 C 4.875 -0.585938 4.921875 -0.4375 5.015625 -0.375 C 5.117188 -0.3125 5.316406 -0.28125 5.609375 -0.28125 L 5.609375 0 L 2.046875 0 L 2.046875 -0.28125 C 2.378906 -0.28125 2.59375 -0.3125 2.6875 -0.375 C 2.78125 -0.445312 2.828125 -0.597656 2.828125 -0.828125 L 2.828125 -16.078125 C 2.828125 -16.296875 2.773438 -16.4375 2.671875 -16.5 C 2.578125 -16.570312 2.367188 -16.609375 2.046875 -16.609375 L 2.046875 -16.890625 Z M 6.734375 -16.890625 "/></g></g></g><g clip-path="url(#0f571258dd)"><g fill="#ff922b" fill-opacity="1"><g transform="translate(432.195121, 18.099837)"><g><path d="M 0.703125 -17.640625 L 0.96875 -17.640625 C 1 -17.421875 1.050781 -17.238281 1.125 -17.09375 C 1.195312 -16.957031 1.363281 -16.890625 1.625 -16.890625 L 16.40625 -16.890625 C 16.632812 -16.890625 16.789062 -16.9375 16.875 -17.03125 C 16.96875 -17.132812 17.035156 -17.335938 17.078125 -17.640625 L 17.359375 -17.640625 L 17.359375 -14.109375 L 17.078125 -14.109375 C 17.046875 -14.367188 16.984375 -14.554688 16.890625 -14.671875 C 16.796875 -14.785156 16.640625 -14.84375 16.421875 -14.84375 L 10.203125 -14.84375 L 10.203125 -0.78125 C 10.203125 -0.570312 10.253906 -0.4375 10.359375 -0.375 C 10.460938 -0.3125 10.660156 -0.28125 10.953125 -0.28125 L 10.953125 0 L 7.09375 0 L 7.09375 -0.28125 C 7.425781 -0.28125 7.632812 -0.316406 7.71875 -0.390625 C 7.800781 -0.472656 7.84375 -0.601562 7.84375 -0.78125 L 7.84375 -14.84375 L 1.640625 -14.84375 C 1.378906 -14.84375 1.210938 -14.785156 1.140625 -14.671875 C 1.078125 -14.554688 1.019531 -14.367188 0.96875 -14.109375 L 0.703125 -14.109375 Z M 0.703125 -17.640625 "/></g></g></g></g></g></g><path stroke-linecap="butt" transform="matrix(0.75, 0, 0, 0.75, 518.018238, 151.7359)" fill="none" stroke-linejoin="miter" d="M 0.00172474 0.997966 L 802.428874 0.997966 " stroke="#ff922b" stroke-width="2" stroke-opacity="1" stroke-miterlimit="4"/><g transform="matrix(1, 0, 0, 1, 520, 162)"><g clip-path="url(#c9e9e41d4f)"><g fill="#ff922b" fill-opacity="1"><g transform="translate(0.799161, 24.194258)"><g><path d="M 16.484375 -11.1875 C 17.554688 -11.1875 18.4375 -11.457031 19.125 -12 C 19.820312 -12.550781 20.171875 -13.363281 20.171875 -14.4375 C 20.171875 -15.601562 19.789062 -16.476562 19.03125 -17.0625 C 18.269531 -17.65625 17.21875 -17.953125 15.875 -17.953125 L 6.765625 -17.953125 L 6.765625 -11.1875 Z M 15.984375 -20.4375 C 18.210938 -20.4375 19.9375 -19.941406 21.15625 -18.953125 C 22.375 -17.972656 22.984375 -16.535156 22.984375 -14.640625 C 22.984375 -13.722656 22.832031 -12.898438 22.53125 -12.171875 C 22.226562 -11.453125 21.816406 -10.832031 21.296875 -10.3125 C 20.785156 -9.800781 20.164062 -9.40625 19.4375 -9.125 C 18.71875 -8.84375 17.945312 -8.703125 17.125 -8.703125 L 6.765625 -8.703125 L 6.765625 -1.171875 C 6.765625 -0.859375 6.828125 -0.648438 6.953125 -0.546875 C 7.078125 -0.453125 7.328125 -0.40625 7.703125 -0.40625 L 7.703125 0 L 3.015625 0 L 3.015625 -0.40625 C 3.390625 -0.40625 3.640625 -0.453125 3.765625 -0.546875 C 3.890625 -0.648438 3.953125 -0.859375 3.953125 -1.171875 L 3.953125 -19.265625 C 3.953125 -19.578125 3.890625 -19.78125 3.765625 -19.875 C 3.640625 -19.976562 3.390625 -20.03125 3.015625 -20.03125 L 3.015625 -20.4375 Z M 15.984375 -20.4375 "/></g></g></g></g></g></svg>